<svg width="30" height="30" viewBox="0 0 30 30" fill="none" xmlns="http://www.w3.org/2000/svg">
<path d="M26.9883 8.63085L20.6836 15.0527C20.6367 15.0996 20.6367 15.1699 20.6836 15.2168L25.0957 19.916C25.3945 20.2148 25.3945 20.6953 25.0957 20.9941C24.9492 21.1406 24.75 21.2168 24.5566 21.2168C24.3633 21.2168 24.1641 21.1406 24.0176 20.9941L19.623 16.3125C19.5762 16.2656 19.5 16.2656 19.4531 16.3125L18.3809 17.4023C17.4844 18.3105 16.2949 18.8144 15.0176 18.8203C13.7227 18.8262 12.4922 18.2812 11.584 17.3613L10.5527 16.3125C10.5059 16.2656 10.4297 16.2656 10.3828 16.3125L5.98828 20.9941C5.8418 21.1406 5.64258 21.2168 5.44922 21.2168C5.25586 21.2168 5.05664 21.1406 4.91016 20.9941C4.61133 20.6953 4.61133 20.2148 4.91016 19.916L9.32227 15.2168C9.36328 15.1699 9.36328 15.0996 9.32227 15.0527L3.01172 8.63085C2.93555 8.55468 2.8125 8.60742 2.8125 8.71289V21.5625C2.8125 22.5937 3.65625 23.4375 4.6875 23.4375H25.3125C26.3438 23.4375 27.1875 22.5937 27.1875 21.5625V8.71289C27.1875 8.60742 27.0586 8.56054 26.9883 8.63085V8.63085Z" fill="white"/>
<path d="M15 17.291C15.8672 17.291 16.6816 16.9512 17.291 16.3301L26.4844 6.97266C26.1621 6.71484 25.7637 6.5625 25.3242 6.5625H4.68164C4.24219 6.5625 3.83789 6.71484 3.52148 6.97266L12.7148 16.3301C13.3184 16.9453 14.1328 17.291 15 17.291V17.291Z" fill="white"/>
</svg>
