<svg width="30" height="30" viewBox="0 0 30 30" fill="none" xmlns="http://www.w3.org/2000/svg">
<path d="M15 1.875C7.75195 1.875 1.875 7.9043 1.875 15.334C1.875 21.2813 5.63672 26.3203 10.8516 28.1016C10.9336 28.1191 11.0039 28.125 11.0742 28.125C11.5605 28.125 11.748 27.7676 11.748 27.457C11.748 27.1348 11.7363 26.291 11.7305 25.166C11.2383 25.2773 10.7988 25.3242 10.4063 25.3242C7.88086 25.3242 7.30664 23.3613 7.30664 23.3613C6.70898 21.8086 5.84766 21.3926 5.84766 21.3926C4.70508 20.5898 5.8418 20.5664 5.92969 20.5664H5.93555C7.25391 20.6836 7.94531 21.9609 7.94531 21.9609C8.60156 23.1094 9.48047 23.4316 10.2656 23.4316C10.8809 23.4316 11.4375 23.2324 11.7656 23.0801C11.8828 22.2129 12.2227 21.6211 12.5977 21.2813C9.68555 20.9414 6.62109 19.7871 6.62109 14.6309C6.62109 13.1602 7.13086 11.959 7.96875 11.0215C7.83398 10.6816 7.38281 9.31055 8.09766 7.45898C8.09766 7.45898 8.19141 7.42969 8.39062 7.42969C8.86523 7.42969 9.9375 7.61133 11.707 8.8418C12.7559 8.54297 13.875 8.39648 14.9941 8.39062C16.1074 8.39648 17.2324 8.54297 18.2812 8.8418C20.0508 7.61133 21.123 7.42969 21.5977 7.42969C21.7969 7.42969 21.8906 7.45898 21.8906 7.45898C22.6055 9.31055 22.1543 10.6816 22.0195 11.0215C22.8574 11.9648 23.3672 13.166 23.3672 14.6309C23.3672 19.7988 20.2969 20.9355 17.373 21.2695C17.8418 21.6855 18.2637 22.5059 18.2637 23.7598C18.2637 25.5586 18.2461 27.0117 18.2461 27.4512C18.2461 27.7676 18.4277 28.125 18.9141 28.125C18.9844 28.125 19.0664 28.1191 19.1484 28.1016C24.3691 26.3203 28.125 21.2754 28.125 15.334C28.125 7.9043 22.248 1.875 15 1.875Z" fill="white"/>
</svg>
