<svg width="30" height="30" viewBox="0 0 30 30" fill="none" xmlns="http://www.w3.org/2000/svg">
<path d="M24.4453 3.75H5.67188C4.64648 3.75 3.75 4.48828 3.75 5.50195V24.3164C3.75 25.3359 4.64648 26.2441 5.67188 26.2441H24.4395C25.4707 26.2441 26.2441 25.3301 26.2441 24.3164V5.50195C26.25 4.48828 25.4707 3.75 24.4453 3.75ZM10.7227 22.5H7.5V12.4805H10.7227V22.5ZM9.22266 10.957H9.19922C8.16797 10.957 7.5 10.1895 7.5 9.22852C7.5 8.25 8.18555 7.5 9.24023 7.5C10.2949 7.5 10.9395 8.24414 10.9629 9.22852C10.9629 10.1895 10.2949 10.957 9.22266 10.957ZM22.5 22.5H19.2773V17.0215C19.2773 15.709 18.8086 14.8125 17.6426 14.8125C16.752 14.8125 16.2246 15.416 15.9902 16.002C15.9023 16.2129 15.8789 16.5 15.8789 16.793V22.5H12.6562V12.4805H15.8789V13.875C16.3477 13.207 17.0801 12.2461 18.7852 12.2461C20.9004 12.2461 22.5 13.6406 22.5 16.6465V22.5V22.5Z" fill="white"/>
</svg>
