<svg width="30" height="30" viewBox="0 0 30 30" fill="none" xmlns="http://www.w3.org/2000/svg">
<path d="M28.8281 6.41602C27.8086 6.86719 26.7188 7.17188 25.5703 7.3125C26.7422 6.60938 27.6445 5.49609 28.0664 4.17187C26.9707 4.82227 25.7578 5.29687 24.4629 5.54883C23.4258 4.44141 21.9492 3.75 20.3203 3.75C17.1856 3.75 14.6485 6.29297 14.6485 9.42773C14.6485 9.87305 14.6953 10.3066 14.7949 10.7227C10.0781 10.4883 5.89455 8.22656 3.09962 4.78711C2.6133 5.625 2.33205 6.60352 2.33205 7.64062C2.33205 9.60937 3.33986 11.3496 4.8633 12.3691C3.9258 12.3457 3.04689 12.0879 2.28517 11.6602V11.7305C2.28517 14.4844 4.2422 16.7754 6.83791 17.2969C6.3633 17.4258 5.85939 17.4961 5.34377 17.4961C4.98048 17.4961 4.62306 17.4609 4.27736 17.3906C4.99806 19.6465 7.09572 21.2871 9.58009 21.334C7.64064 22.8574 5.19142 23.7656 2.53127 23.7656C2.07423 23.7656 1.62306 23.7363 1.17775 23.6836C3.6797 25.3125 6.66212 26.25 9.86134 26.25C20.3086 26.25 26.0156 17.5957 26.0156 10.0898C26.0156 9.84375 26.0098 9.59766 25.9981 9.35742C27.1055 8.55469 28.0664 7.55859 28.8281 6.41602Z" fill="white"/>
</svg>
